<svg xmlns="http://www.w3.org/2000/svg" viewBox="0 0 980 210" font-family="-apple-system, BlinkMacSystemFont, 'Segoe UI', Roboto, sans-serif">
  <defs>
    <marker id="arrow" viewBox="0 0 10 10" refX="9" refY="5" markerWidth="6" markerHeight="6" orient="auto">
      <path d="M 0 0 L 10 5 L 0 10 z" fill="#9ba3b0"/>
    </marker>
    <marker id="arrow-down" viewBox="0 0 10 10" refX="9" refY="5" markerWidth="5" markerHeight="5" orient="auto">
      <path d="M 0 0 L 10 5 L 0 10 z" fill="#6b7280"/>
    </marker>
  </defs>

  <!-- Top row: stages -->
  <!-- Planner -->
  <rect x="10" y="20" width="160" height="52" rx="6" fill="#29362B" stroke="#3a4d3d" stroke-width="1.5"/>
  <text x="90" y="51" text-anchor="middle" fill="#ffffff" font-size="16" font-weight="600">Planner</text>

  <!-- Horizontal arrow -->
  <line x1="170" y1="46" x2="197" y2="46" stroke="#9ba3b0" stroke-width="1.5" marker-end="url(#arrow)"/>

  <!-- Reviewers -->
  <rect x="200" y="20" width="160" height="52" rx="6" fill="#29362B" stroke="#3a4d3d" stroke-width="1.5"/>
  <text x="280" y="51" text-anchor="middle" fill="#ffffff" font-size="16" font-weight="600">Reviewers</text>

  <line x1="360" y1="46" x2="387" y2="46" stroke="#9ba3b0" stroke-width="1.5" marker-end="url(#arrow)"/>

  <!-- Dedup -->
  <rect x="390" y="20" width="160" height="52" rx="6" fill="#29362B" stroke="#3a4d3d" stroke-width="1.5"/>
  <text x="470" y="51" text-anchor="middle" fill="#ffffff" font-size="16" font-weight="600">Dedup</text>

  <line x1="550" y1="46" x2="577" y2="46" stroke="#9ba3b0" stroke-width="1.5" marker-end="url(#arrow)"/>

  <!-- Judge -->
  <rect x="580" y="20" width="160" height="52" rx="6" fill="#29362B" stroke="#3a4d3d" stroke-width="1.5"/>
  <text x="660" y="51" text-anchor="middle" fill="#ffffff" font-size="16" font-weight="600">Judge</text>

  <line x1="740" y1="46" x2="767" y2="46" stroke="#9ba3b0" stroke-width="1.5" marker-end="url(#arrow)"/>

  <!-- Review Posted -->
  <rect x="770" y="20" width="200" height="52" rx="6" fill="#29362B" stroke="#3a4d3d" stroke-width="1.5"/>
  <text x="870" y="51" text-anchor="middle" fill="#ffffff" font-size="16" font-weight="600">Verdict</text>

  <!-- Vertical arrows: stage → description -->
  <line x1="90" y1="72" x2="90" y2="108" stroke="#6b7280" stroke-width="1" marker-end="url(#arrow-down)"/>
  <line x1="280" y1="72" x2="280" y2="108" stroke="#6b7280" stroke-width="1" marker-end="url(#arrow-down)"/>
  <line x1="470" y1="72" x2="470" y2="108" stroke="#6b7280" stroke-width="1" marker-end="url(#arrow-down)"/>
  <line x1="660" y1="72" x2="660" y2="108" stroke="#6b7280" stroke-width="1" marker-end="url(#arrow-down)"/>
  <line x1="870" y1="72" x2="870" y2="108" stroke="#6b7280" stroke-width="1" marker-end="url(#arrow-down)"/>

  <!-- Bottom row: descriptions -->
  <!-- Planner desc -->
  <rect x="10" y="112" width="160" height="80" rx="6" fill="#1a1d23" stroke="#3a4d3d" stroke-width="1" stroke-dasharray="4 3"/>
  <text x="90" y="142" text-anchor="middle" fill="#9ba3b0" font-size="13">reads diff, picks</text>
  <text x="90" y="160" text-anchor="middle" fill="#9ba3b0" font-size="13">team + effort</text>

  <!-- Reviewers desc -->
  <rect x="200" y="112" width="160" height="80" rx="6" fill="#1a1d23" stroke="#3a4d3d" stroke-width="1" stroke-dasharray="4 3"/>
  <text x="280" y="142" text-anchor="middle" fill="#9ba3b0" font-size="13">specialists review</text>
  <text x="280" y="160" text-anchor="middle" fill="#9ba3b0" font-size="13">in parallel</text>

  <!-- Dedup desc -->
  <rect x="390" y="112" width="160" height="80" rx="6" fill="#1a1d23" stroke="#3a4d3d" stroke-width="1" stroke-dasharray="4 3"/>
  <text x="470" y="142" text-anchor="middle" fill="#9ba3b0" font-size="13">drops repeats from</text>
  <text x="470" y="160" text-anchor="middle" fill="#9ba3b0" font-size="13">prior reviews</text>

  <!-- Judge desc -->
  <rect x="580" y="112" width="160" height="80" rx="6" fill="#1a1d23" stroke="#3a4d3d" stroke-width="1" stroke-dasharray="4 3"/>
  <text x="660" y="142" text-anchor="middle" fill="#9ba3b0" font-size="13">filters noise,</text>
  <text x="660" y="160" text-anchor="middle" fill="#9ba3b0" font-size="13">assigns severity</text>

  <!-- Posted desc -->
  <rect x="770" y="112" width="200" height="80" rx="6" fill="#1a1d23" stroke="#3a4d3d" stroke-width="1" stroke-dasharray="4 3"/>
  <text x="870" y="142" text-anchor="middle" fill="#9ba3b0" font-size="13">inline comments +</text>
  <text x="870" y="160" text-anchor="middle" fill="#9ba3b0" font-size="13">summary + verdict</text>
</svg>
